<?xml version="1.0" encoding="UTF-8"?>
<svg id="Calque_1" data-name="Calque 1" xmlns="http://www.w3.org/2000/svg" viewBox="0 0 30.29 25.79">
  <defs>
    <style>
      .cls-1 {
        fill: #3562ff;
      }

      .cls-1, .cls-2, .cls-3 {
        stroke-width: 0px;
      }

      .cls-2 {
        fill: #fff;
      }

      .cls-3 {
        fill: #fdbc04;
      }
    </style>
  </defs>
  <g>
    <circle class="cls-1" cx="15.16" cy="13.4" r="10.13"/>
    <g>
      <path class="cls-2" d="m17.5,6.97c.09-.69-2-2.48-2-2.48,0,0-.08-.03-.19-.03-.01,0-.03,0-.04,0-.01,0-.03,0-.04,0-.11,0-.19.03-.19.03,0,0-2.09,1.79-2,2.48.16,1.19,1.09,2.04,1.52,2.65,0,0,.76.81.05,2.03h1.33c-.71-1.22.05-2.03.05-2.03.43-.61,1.36-1.46,1.52-2.65Z"/>
      <path class="cls-2" d="m17.5,19.53c.09.69-2,2.48-2,2.48,0,0-.08.03-.19.03-.01,0-.03,0-.04,0-.01,0-.03,0-.04,0-.11,0-.19-.03-.19-.03,0,0-2.09-1.79-2-2.48.16-1.19,1.09-2.04,1.52-2.65,0,0,.76-.81.05-2.03h1.33c-.71,1.22.05,2.03.05,2.03.43.61,1.36,1.46,1.52,2.65Z"/>
      <path class="cls-2" d="m9.09,15.53c-.69.09-2.48-2-2.48-2,0,0-.03-.08-.03-.19,0-.01,0-.03,0-.04,0-.01,0-.03,0-.04,0-.11.03-.19.03-.19,0,0,1.79-2.09,2.48-2,1.19.16,2.04,1.09,2.65,1.52,0,0,.81.76,2.03.05v.66h0v.67c-1.22-.71-2.03.05-2.03.05-.61.43-1.46,1.36-2.65,1.52Z"/>
      <path class="cls-2" d="m21.55,11.07c.69-.09,2.48,2,2.48,2,0,0,.03.08.03.19,0,.01,0,.03,0,.04,0,.01,0,.03,0,.04,0,.11-.03.19-.03.19,0,0-1.79,2.09-2.48,2-1.19-.16-2.04-1.09-2.65-1.52,0,0-.81-.76-2.03-.05v-.66h0v-.67c1.22.71,2.03-.05,2.03-.05.61-.43,1.46-1.36,2.65-1.52Z"/>
      <path class="cls-2" d="m21.29,10.42c.56-.42.34-3.17.34-3.17,0,0-.04-.08-.12-.16,0-.01-.02-.02-.03-.03-.01,0-.02-.02-.03-.03-.08-.08-.16-.12-.16-.12,0,0-2.74-.22-3.17.34-.73.95-.67,2.22-.8,2.95,0,0-.04,1.11-1.4,1.47l.47.47h0s.47.47.47.47c.36-1.36,1.47-1.4,1.47-1.4.73-.13,2-.07,2.95-.8Z"/>
      <path class="cls-2" d="m12.41,19.3c-.42.56-3.17.34-3.17.34,0,0-.08-.04-.16-.12-.01,0-.02-.02-.03-.03,0-.01-.02-.02-.03-.03-.08-.08-.12-.16-.12-.16,0,0-.22-2.74.34-3.17.95-.73,2.22-.67,2.95-.8,0,0,1.11-.04,1.47-1.4l.47.47h0s.47.47.47.47c-1.36.36-1.4,1.47-1.4,1.47-.13.73-.07,2-.8,2.95Z"/>
      <path class="cls-2" d="m9.28,10.53c-.56-.42-.34-3.17-.34-3.17,0,0,.04-.08.12-.16,0-.01.02-.02.03-.03.01,0,.02-.02.03-.03.08-.08.16-.12.16-.12,0,0,2.74-.22,3.17.34.73.95.67,2.22.8,2.95,0,0,.04,1.11,1.4,1.47l-.47.47h0s-.47.47-.47.47c-.36-1.36-1.47-1.4-1.47-1.4-.73-.13-2-.07-2.95-.8Z"/>
      <path class="cls-2" d="m21.25,16.18c.56.42.34,3.17.34,3.17,0,0-.04.08-.12.16,0,.01-.02.02-.03.03-.01,0-.02.02-.03.03-.08.08-.16.12-.16.12,0,0-2.74.22-3.17-.34-.73-.95-.67-2.22-.8-2.95,0,0-.04-1.11-1.4-1.47l.47-.47h0s.47-.47.47-.47c.36,1.36,1.47,1.4,1.47,1.4.73.13,2,.07,2.95.8Z"/>
    </g>
    <g>
      <rect class="cls-3" x="14.9" y="6.36" width=".74" height="14.08" rx=".37" ry=".37"/>
      <rect class="cls-3" x="14.9" y="6.26" width=".74" height="14.08" rx=".37" ry=".37" transform="translate(28.57 -1.97) rotate(90)"/>
      <rect class="cls-3" x="14.9" y="4.78" width=".74" height="17.05" rx=".37" ry=".37" transform="translate(13.88 -6.9) rotate(45)"/>
      <rect class="cls-3" x="15" y="4.88" width=".74" height="17.05" rx=".37" ry=".37" transform="translate(35.71 12.01) rotate(135)"/>
    </g>
  </g>
  <circle class="cls-3" cx="15.24" cy="13.33" r="1.82"/>
  <path class="cls-3" d="m14.9,10.43s.09.48-.29,1.22h.76l-.47-1.22Z"/>
  <g>
    <path class="cls-3" d="m16.98,15.54s-.3-.31-1.09-.56l.54-.54.55,1.1Z"/>
    <path class="cls-3" d="m15.63,16.14s-.06-.49.37-1.2l-.76-.05.39,1.25Z"/>
  </g>
  <g>
    <path class="cls-3" d="m14.91,10.39s.04.56-.34,1.3h.76l-.42-1.3Z"/>
    <path class="cls-3" d="m13.54,11.06s.33.38,1.14.58l-.5.57-.63-1.16Z"/>
  </g>
  <g>
    <path class="cls-3" d="m17.05,10.99s-.37.43-1.16.68l.54.54.62-1.22Z"/>
    <path class="cls-3" d="m15.61,10.5s-.04.5.39,1.22l-.76.05.37-1.27Z"/>
  </g>
  <g>
    <path class="cls-3" d="m17.6,15.11s-.43-.37-.68-1.16l-.54.54,1.22.62Z"/>
    <path class="cls-3" d="m18.1,13.67s-.5-.04-1.22.39l-.05-.76,1.27.37Z"/>
  </g>
  <g>
    <path class="cls-3" d="m14.86,16.27s.04-.56-.34-1.3h.76l-.42,1.3Z"/>
    <path class="cls-3" d="m13.49,15.6s.33-.38,1.14-.58l-.5-.57-.63,1.16Z"/>
  </g>
  <g>
    <path class="cls-3" d="m18.1,12.95s-.56,0-1.26-.46l-.07.76,1.33-.3Z"/>
    <path class="cls-3" d="m17.56,11.53s-.41.29-.68,1.08l-.53-.55,1.21-.53Z"/>
  </g>
  <g>
    <path class="cls-3" d="m12.95,11.53s.39.4.57,1.22l.59-.49-1.16-.73Z"/>
    <path class="cls-3" d="m12.33,12.92s.5.09,1.25-.28l-.02.76-1.23-.48Z"/>
  </g>
  <g>
    <path class="cls-3" d="m12.89,15.15s.43-.37.68-1.16l.54.54-1.22.62Z"/>
    <path class="cls-3" d="m12.39,13.71s.5-.04,1.22.39l.05-.76-1.27.37Z"/>
  </g>
</svg>